<?xml version="1.0" encoding="UTF-8" standalone="no"?>
<!DOCTYPE svg PUBLIC "-//W3C//DTD SVG 1.1//EN" "http://www.w3.org/Graphics/SVG/1.1/DTD/svg11.dtd">
<!-- Created with Vectornator (http://vectornator.io/) -->
<svg height="100%" stroke-miterlimit="10" style="fill-rule:nonzero;clip-rule:evenodd;stroke-linecap:round;stroke-linejoin:round;" version="1.1" viewBox="0 0 443.592 612.558" width="100%" xml:space="preserve" xmlns="http://www.w3.org/2000/svg" xmlns:vectornator="http://vectornator.io" xmlns:xlink="http://www.w3.org/1999/xlink">
<defs/>
<g id="Layer-1" vectornator:layerName="Layer 1">
<g opacity="1" vectornator:layerName="Group 13">
<g opacity="1" vectornator:layerName="Group 7">
<path d="M36.0411 588.121C36.0411 579.817 42.7734 573.084 51.0781 573.084L62.1474 573.084C70.4521 573.084 77.1844 579.817 77.1844 588.121L77.1844 588.121C77.1844 596.426 70.4521 603.158 62.1474 603.158L51.0781 603.158C42.7734 603.158 36.0411 596.426 36.0411 588.121L36.0411 588.121Z" fill="#000000" fill-rule="nonzero" opacity="1" stroke="#007aff" stroke-linecap="butt" stroke-linejoin="round" stroke-opacity="0" stroke-width="10" vectornator:layerName="Rectangle 3"/>
<path d="M136.372 578.288C136.372 569.984 143.104 563.251 151.409 563.251L162.478 563.251C170.783 563.251 177.515 569.984 177.515 578.288L177.515 578.288C177.515 586.593 170.783 593.325 162.478 593.325L151.409 593.325C143.104 593.325 136.372 586.593 136.372 578.288L136.372 578.288Z" fill="#000000" fill-rule="nonzero" opacity="1" stroke="#007aff" stroke-linecap="butt" stroke-linejoin="round" stroke-opacity="0" stroke-width="10" vectornator:layerName="Rectangle 4"/>
<path d="M277.999 588.121C277.999 579.817 284.731 573.084 293.036 573.084L304.105 573.084C312.41 573.084 319.142 579.817 319.142 588.121L319.142 588.121C319.142 596.426 312.41 603.158 304.105 603.158L293.036 603.158C284.731 603.158 277.999 596.426 277.999 588.121L277.999 588.121Z" fill="#000000" fill-rule="nonzero" opacity="1" stroke="#007aff" stroke-linecap="butt" stroke-linejoin="round" stroke-opacity="0" stroke-width="10" vectornator:layerName="Rectangle 5"/>
<path d="M370.406 578.288C370.406 569.984 377.138 563.251 385.443 563.251L396.512 563.251C404.817 563.251 411.549 569.984 411.549 578.288L411.549 578.288C411.549 586.593 404.817 593.325 396.512 593.325L385.443 593.325C377.138 593.325 370.406 586.593 370.406 578.288L370.406 578.288Z" fill="#000000" fill-rule="nonzero" opacity="1" stroke="#007aff" stroke-linecap="butt" stroke-linejoin="round" stroke-opacity="0" stroke-width="10" vectornator:layerName="Rectangle 6"/>
<path d="M41.5581 30.595C41.5581 18.8894 48.3056 9.40008 56.6291 9.40008L56.6291 9.40008C64.9527 9.40008 71.7002 18.8894 71.7002 30.595L71.7002 57.7977C71.7002 69.5033 64.9527 78.9927 56.6291 78.9927L56.6291 78.9927C48.3056 78.9927 41.5581 69.5033 41.5581 57.7977L41.5581 30.595Z" fill="#ffe2ef" fill-rule="nonzero" opacity="1" stroke="#007aff" stroke-linecap="butt" stroke-linejoin="round" stroke-opacity="0" stroke-width="10" vectornator:layerName="Rectangle 1"/>
<path d="M156.944 30.595C156.944 18.8894 163.691 9.40008 172.015 9.40008L172.015 9.40008C180.338 9.40008 187.086 18.8894 187.086 30.595L187.086 57.7977C187.086 69.5033 180.338 78.9927 172.015 78.9927L172.015 78.9927C163.691 78.9927 156.944 69.5033 156.944 57.7977L156.944 30.595Z" fill="#ffe2ef" fill-rule="nonzero" opacity="1" stroke="#007aff" stroke-linecap="butt" stroke-linejoin="round" stroke-opacity="0" stroke-width="10" vectornator:layerName="Rectangle 7"/>
<path d="M411.549 535.289C411.549 528.393 417.139 522.802 424.035 522.802C430.931 522.802 436.521 528.393 436.521 535.289C436.521 542.185 430.931 547.775 424.035 547.775C417.139 547.775 411.549 542.185 411.549 535.289Z" fill="#ffffff" fill-rule="nonzero" opacity="1" stroke="#007aff" stroke-linecap="butt" stroke-linejoin="round" stroke-opacity="0" stroke-width="10" vectornator:layerName="Oval 16"/>
<path d="M109.562 34.449C93.1625 34.449 79.1315 44.1091 72.4549 58.0014C71.051 57.8567 69.6923 57.5604 68.2502 57.5603C52.923 57.5603 39.6889 66.0305 32.554 78.4664C16.5459 84.1822 5.00277 99.3722 5.00276 117.397C5.00277 128.45 9.38629 138.426 16.4114 145.86C9.38765 153.293 5.0028 163.271 5.00276 174.322C5.00278 191.236 15.1439 205.713 29.6137 212.165C27.9564 216.653 26.9085 221.448 26.9085 226.514C26.9085 234.107 29.0915 241.122 32.6423 247.244C29.0914 253.365 26.9086 260.38 26.9085 267.973C26.9085 279.07 31.3312 289.082 38.4054 296.524C31.33 303.967 26.9085 314.007 26.9085 325.105C26.9085 334.898 30.3675 343.809 36.0531 350.862C31.3398 354.644 28.2611 360.369 28.2611 366.887C28.2612 373.255 31.2031 378.862 35.7296 382.648C30.2231 389.642 26.9085 398.402 26.9085 408.023C26.9085 419.648 31.7254 430.133 39.4051 437.662C31.7181 445.193 26.9086 455.67 26.9085 467.301C26.9085 471.45 27.719 475.371 28.8492 479.151C27.7242 482.923 26.9086 486.832 26.9085 490.971C26.9085 499.559 29.5095 507.523 33.9654 514.141C34.0511 514.269 34.1723 514.368 34.2595 514.494C29.7225 519.114 26.9085 525.432 26.9085 532.43C26.9085 538.234 28.8976 543.545 32.1424 547.838C28.9059 552.128 26.9086 557.421 26.9085 563.216C26.9085 577.348 38.3179 588.797 52.4015 588.797C66.4853 588.797 77.924 577.348 77.924 563.216C77.924 561.233 77.6437 559.306 77.2183 557.453C88.7183 554.975 97.3305 544.71 97.3304 532.43C97.3304 528.775 96.5309 525.343 95.1546 522.198C103.913 514.594 109.562 503.504 109.562 490.971C109.562 489.136 109.263 487.391 109.033 485.62C114.97 488.93 121.725 490.971 128.998 490.971C131.115 490.971 133.142 490.662 135.173 490.354C131.383 494.82 128.998 500.523 128.998 506.849C128.998 510.177 129.669 513.342 130.821 516.258C123.897 520.834 119.295 528.664 119.295 537.605C119.295 544.083 121.78 549.946 125.734 554.454C125.57 555.629 125.382 556.791 125.382 558.012C125.382 572.143 136.82 583.622 150.904 583.622C161.715 583.622 170.893 576.833 174.603 567.303C186.635 565.249 195.803 554.792 195.803 542.134C195.803 539.458 195.298 536.943 194.539 534.518C199.076 529.898 201.89 523.551 201.89 516.552C201.89 510.141 199.451 504.371 195.568 499.88C198.011 497.061 199.831 493.729 200.861 490.03C209.994 488.076 217.902 483.005 223.708 476.093C229.866 488.388 241.84 497.078 256.081 498.616C255.196 501.214 254.582 503.951 254.582 506.849C254.582 515.352 258.777 522.838 265.137 527.491C262.229 531.647 260.492 536.669 260.492 542.134C260.492 550.589 264.63 558.028 270.93 562.687C270.605 564.318 270.43 566.018 270.43 567.744C270.43 581.877 281.839 593.325 295.923 593.325C310.007 593.325 321.416 581.876 321.416 567.744C321.416 564.623 320.789 561.659 319.77 558.894C326.602 554.303 331.09 546.476 331.09 537.605C331.09 533.842 330.221 530.326 328.767 527.108C330.228 523.884 331.09 520.325 331.09 516.552C331.09 515.281 330.916 514.069 330.737 512.847C334.158 510.781 337.047 507.971 339.176 504.585C344.602 501.977 349.314 498.216 353.113 493.617C355.95 495.822 359.209 497.474 362.817 498.322C362.809 498.572 362.758 498.805 362.758 499.057C362.758 500.856 362.935 502.597 363.287 504.291C357.121 508.962 363.552 516.348 363.552 524.697C363.552 534.044 358.123 542.079 365.581 546.544C363.831 550.012 362.758 553.858 362.758 558.012C362.758 572.143 374.167 583.622 388.251 583.622C402.335 583.622 413.744 572.144 413.744 558.012C413.744 555.182 413.178 552.529 412.332 549.984C425.29 548.77 422.683 538.958 422.683 525.638C422.683 524.193 422.478 523.251 422.3 522.227C423.199 520.625 423.866 518.906 423.976 516.964C423.982 516.927 424.034 516.851 424.035 516.817C424.037 516.752 424.007 516.582 424.006 516.494C424.007 516.414 424.035 516.339 424.035 516.258C424.035 515.984 423.965 515.733 423.947 515.464C423.942 515.395 423.924 515.328 423.918 515.259C423.913 515.226 423.893 515.203 423.888 515.17C423.592 512.031 422.102 509.335 419.889 507.32C420.539 505.882 421.295 504.001 421.007 503.203C420.978 503.124 420.947 503.101 420.918 503.027C421.558 501.581 421.977 500.033 421.977 498.351C421.977 496.025 421.144 493.982 420.036 492.118C421.144 490.253 421.977 488.21 421.977 485.884C421.977 479.939 417.811 475.002 412.244 473.741C413.172 471.131 413.744 468.33 413.744 465.39C413.744 459.91 411.887 454.973 408.951 450.835C411.876 448.555 413.891 445.158 413.891 441.161C413.891 436.019 410.745 431.607 406.305 429.694C410.754 427.784 413.891 423.375 413.891 418.226C413.891 415.9 413.058 413.828 411.95 411.963C413.058 410.099 413.891 408.056 413.891 405.73C413.891 402.602 412.616 399.835 410.715 397.644C411.232 396.273 411.539 394.785 411.539 393.233C411.539 388.581 408.901 384.678 405.129 382.53C407.75 380.241 409.48 376.963 409.48 373.209C409.48 368.883 407.148 365.276 403.805 363.036C407.155 360.796 409.48 357.165 409.48 352.832C409.48 345.936 403.88 340.336 396.984 340.336C396.568 340.336 396.183 340.414 395.778 340.453C396.513 338.862 396.984 337.146 396.984 335.278C396.984 330.183 393.921 325.84 389.545 323.899C389.571 323.504 389.662 323.125 389.662 322.723C389.662 312.987 381.756 305.081 372.02 305.081C370.422 305.081 368.905 305.359 367.433 305.757C365.613 301.113 361.137 297.818 355.848 297.818C351.98 297.818 348.67 299.673 346.38 302.434C344.09 299.673 340.78 297.818 336.912 297.818C335.637 297.818 334.425 298.05 333.266 298.406C325.708 289.404 314.457 283.616 301.804 283.616C294.238 283.616 287.262 285.818 281.162 289.379C275.061 285.815 268.061 283.616 260.492 283.616C255.36 283.616 250.5 284.665 245.966 286.38C238.549 275.289 225.934 267.973 211.623 267.973C200.357 267.973 190.288 272.639 182.866 279.999C181.678 273.302 176.692 267.975 170.222 266.18C170.236 265.755 170.31 265.344 170.31 264.915C170.31 263.259 170.187 261.662 169.987 260.064C173.044 256.889 174.927 252.588 174.927 247.832C174.927 242.993 172.996 238.609 169.84 235.423C173.205 232.213 175.309 227.71 175.309 222.692C175.309 217.989 173.455 213.741 170.457 210.577C183.354 203.569 192.216 190.074 192.216 174.322C192.216 172.226 191.927 170.219 191.628 168.207C203.576 160.938 197.832 141.82 197.832 126.777C197.832 111.921 192.095 107.342 180.396 100.019C179.699 77.73 173.286 57.5603 150.904 57.5603C149.467 57.5603 148.098 57.8578 146.699 58.0014C146.697 57.9971 146.672 58.0056 146.67 58.0014C145.801 56.194 144.958 54.3879 143.847 52.7381C136.42 41.7075 123.827 34.449 109.562 34.449Z" fill="#f4f4f4" fill-rule="nonzero" opacity="1" stroke="#007aff" stroke-linecap="butt" stroke-linejoin="round" stroke-opacity="0" stroke-width="10" vectornator:layerName="Curve 4"/>
<path d="M124.117 19.3988C107.717 19.3988 93.686 29.0589 87.0094 42.9511C85.6055 42.8065 84.2468 42.5102 82.8046 42.5101C67.4775 42.5101 54.2434 50.9803 47.1085 63.4161C31.1003 69.132 19.5573 84.322 19.5572 102.347C19.5573 113.4 23.9408 123.376 30.9659 130.809C23.9421 138.243 19.5573 148.22 19.5572 159.272C19.5573 176.185 29.6984 190.663 44.1682 197.115C42.5109 201.603 41.463 206.398 41.463 211.464C41.463 219.057 43.646 226.072 47.1967 232.193C43.6459 238.315 41.4631 245.33 41.463 252.923C41.463 264.02 45.8857 274.032 52.9599 281.474C45.8845 288.916 41.463 298.957 41.463 310.055C41.463 319.848 44.922 328.759 50.6076 335.812C45.8943 339.594 42.8156 345.319 42.8156 351.837C42.8156 358.204 45.7576 363.812 50.2841 367.598C44.7776 374.591 41.463 383.352 41.463 392.973C41.463 404.598 46.2799 415.082 53.9596 422.612C46.2726 430.142 41.4631 440.62 41.463 452.251C41.463 456.4 42.2735 460.321 43.4037 464.101C42.2787 467.872 41.463 471.782 41.463 475.921C41.463 484.509 44.064 492.473 48.5199 499.091C48.6056 499.218 48.7268 499.318 48.8139 499.444C44.277 504.064 41.463 510.382 41.463 517.38C41.463 523.184 43.4521 528.495 46.6969 532.788C43.4604 537.078 41.4631 542.37 41.463 548.166C41.463 562.298 52.8724 573.747 66.956 573.747C81.0398 573.747 92.4785 562.298 92.4785 548.166C92.4785 546.183 92.1982 544.256 91.7728 542.403C103.273 539.924 111.885 529.66 111.885 517.38C111.885 513.725 111.085 510.293 109.709 507.148C118.467 499.544 124.117 488.454 124.117 475.921C124.117 474.086 123.818 472.341 123.588 470.569C129.524 473.88 136.279 475.921 143.553 475.921C145.669 475.921 147.697 475.611 149.728 475.303C145.937 479.769 143.553 485.473 143.553 491.799C143.553 495.127 144.224 498.291 145.376 501.208C138.451 505.783 133.849 513.614 133.85 522.555C133.85 529.032 136.335 534.896 140.289 539.404C140.124 540.579 139.936 541.74 139.936 542.961C139.936 557.093 151.375 568.572 165.458 568.572C176.27 568.572 185.448 561.783 189.158 552.253C201.189 550.198 210.358 539.742 210.358 527.083C210.358 524.407 209.853 521.892 209.094 519.468C213.631 514.848 216.445 508.5 216.445 501.502C216.445 495.09 214.006 489.32 210.123 484.83C212.565 482.011 214.385 478.679 215.415 474.98C224.548 473.026 232.457 467.955 238.262 461.043C244.42 473.338 256.394 482.027 270.636 483.566C269.751 486.164 269.136 488.9 269.136 491.799C269.136 500.302 273.331 507.787 279.692 512.44C276.783 516.597 275.046 521.619 275.046 527.083C275.046 535.539 279.184 542.978 285.484 547.637C285.16 549.267 284.985 550.967 284.985 552.694C284.985 566.826 296.394 578.275 310.478 578.275C324.561 578.275 335.971 566.826 335.971 552.694C335.971 549.573 335.343 546.609 334.324 543.843C341.156 539.253 345.645 531.426 345.644 522.555C345.644 518.792 344.776 515.276 343.322 512.058C344.782 508.834 345.645 505.275 345.644 501.502C345.644 500.23 345.47 499.019 345.292 497.797C348.713 495.731 351.602 492.92 353.731 489.535C359.157 486.926 363.868 483.166 367.668 478.567C370.505 480.771 373.763 482.423 377.371 483.272C377.364 483.522 377.312 483.755 377.312 484.007C377.312 485.806 377.49 487.547 377.842 489.241C371.676 493.911 378.106 501.297 378.106 509.647C378.106 518.994 372.678 527.029 380.135 531.494C378.385 534.962 377.312 538.808 377.312 542.961C377.312 557.093 388.722 568.572 402.805 568.572C416.889 568.572 428.298 557.093 428.298 542.961C428.298 540.132 427.732 537.479 426.887 534.934C439.845 533.72 437.237 523.907 437.237 510.588C437.237 509.142 437.032 508.201 436.855 507.177C437.754 505.574 438.421 503.856 438.531 501.914C438.537 501.877 438.589 501.801 438.59 501.767C438.591 501.702 438.562 501.532 438.56 501.443C438.562 501.363 438.59 501.288 438.59 501.208C438.59 500.934 438.52 500.683 438.501 500.414C438.497 500.344 438.478 500.278 438.472 500.208C438.467 500.176 438.447 500.153 438.443 500.12C438.146 496.981 436.657 494.285 434.444 492.269C435.093 490.832 435.849 488.951 435.561 488.153C435.533 488.074 435.501 488.051 435.473 487.976C436.112 486.531 436.531 484.983 436.531 483.301C436.531 480.975 435.699 478.932 434.591 477.068C435.698 475.203 436.531 473.16 436.531 470.834C436.531 464.889 432.365 459.951 426.799 458.69C427.727 456.08 428.298 453.279 428.298 450.34C428.298 444.86 426.441 439.923 423.506 435.785C426.431 433.505 428.445 430.108 428.445 426.111C428.445 420.968 425.3 416.557 420.859 414.644C425.308 412.734 428.445 408.325 428.445 403.176C428.445 400.85 427.612 398.778 426.505 396.913C427.612 395.049 428.445 393.006 428.445 390.68C428.445 387.552 427.17 384.784 425.27 382.593C425.787 381.223 426.093 379.734 426.093 378.183C426.093 373.531 423.456 369.628 419.683 367.48C422.304 365.191 424.035 361.912 424.035 358.159C424.035 353.833 421.702 350.226 418.36 347.985C421.71 345.746 424.035 342.114 424.035 337.782C424.035 330.886 418.434 325.286 411.538 325.286C411.123 325.286 410.738 325.364 410.333 325.403C411.068 323.812 411.538 322.096 411.538 320.228C411.538 315.133 408.475 310.79 404.099 308.849C404.126 308.454 404.217 308.075 404.217 307.673C404.217 297.936 396.311 290.031 386.574 290.031C384.977 290.031 383.459 290.309 381.987 290.707C380.168 286.063 375.692 282.768 370.402 282.768C366.535 282.768 363.225 284.623 360.934 287.384C358.644 284.623 355.334 282.768 351.466 282.768C350.191 282.768 348.98 283 347.82 283.356C340.262 274.354 329.011 268.566 316.358 268.566C308.793 268.566 301.816 270.767 295.717 274.329C289.616 270.764 282.615 268.566 275.046 268.566C269.915 268.566 265.054 269.615 260.521 271.33C253.104 260.238 240.489 252.923 226.177 252.923C214.911 252.923 204.843 257.588 197.42 264.949C196.232 258.252 191.246 252.925 184.777 251.129C184.791 250.705 184.865 250.294 184.865 249.865C184.865 248.209 184.741 246.612 184.542 245.013C187.599 241.839 189.481 237.537 189.481 232.782C189.481 227.943 187.55 223.559 184.394 220.373C187.76 217.163 189.864 212.66 189.864 207.641C189.864 202.938 188.009 198.691 185.012 195.527C197.909 188.519 206.771 175.024 206.771 159.272C206.771 157.176 206.482 155.169 206.183 153.156C218.13 145.888 212.387 126.77 212.387 111.726C212.387 96.8709 206.65 92.2921 194.95 84.9691C194.253 62.6797 187.841 42.5101 165.458 42.5101C164.022 42.5101 162.653 42.8076 161.254 42.9511C161.252 42.9469 161.226 42.9554 161.224 42.9511C160.356 41.1438 159.512 39.3377 158.402 37.6879C150.975 26.6572 138.382 19.3988 124.117 19.3988Z" fill="#ffffff" fill-rule="nonzero" opacity="1" stroke="#007aff" stroke-linecap="butt" stroke-linejoin="round" stroke-opacity="0" stroke-width="10" vectornator:layerName="Curve 3"/>
<g opacity="1" vectornator:layerName="Group 6">
<g opacity="1" vectornator:layerName="Group 3">
<path d="M79.6075 137.775C79.6075 130.991 77.2374 124.346 82.0698 120.317C85.8796 117.14 96.2268 115.807 101.575 115.807C107.371 115.807 115.878 117.175 119.804 120.843C124.095 124.852 123.543 131.439 123.543 137.775C123.543 149.907 113.708 159.742 101.575 159.742C89.4428 159.742 79.6075 149.907 79.6075 137.775Z" fill="#ededed" fill-rule="nonzero" opacity="1" stroke="#007aff" stroke-linecap="butt" stroke-linejoin="round" stroke-opacity="0" stroke-width="10" vectornator:layerName="Oval 13"/>
<g opacity="1" vectornator:layerName="Group 1">
<path d="M94.0483 149.001C94.0483 147.899 94.8643 147.81 95.4195 147.116C99.4859 142.033 108.29 142.519 111.188 148.316" fill="none" opacity="1" stroke="#6b665d" stroke-linecap="round" stroke-linejoin="round" stroke-width="3" vectornator:layerName="Curve 1"/>
<path d="M102.566 143.02C102.566 139.73 102.656 136.442 102.656 133.151" fill="none" opacity="1" stroke="#6b665d" stroke-linecap="round" stroke-linejoin="round" stroke-width="3" vectornator:layerName="Curve 5"/>
<path d="M97.7477 130.858C97.2792 129.951 97.7525 128.775 98.8049 128.232L98.8049 128.232C99.8572 127.688 101.09 127.983 101.559 128.89L102.735 131.168L103.237 132.14C103.706 133.047 103.232 134.223 102.18 134.767L102.18 134.767C101.128 135.31 99.8947 135.016 99.4262 134.108L97.7477 130.858Z" fill="#6b665d" fill-rule="nonzero" opacity="1" stroke="none" vectornator:layerName="Rectangle 1"/>
<path d="M103.524 128.759C104.046 127.9 105.29 127.702 106.302 128.317L106.302 128.317C107.314 128.932 107.711 130.127 107.189 130.987L105.318 134.065C104.796 134.924 103.552 135.122 102.54 134.507L102.54 134.507C101.528 133.892 101.131 132.697 101.653 131.837L103.524 128.759Z" fill="#6b665d" fill-rule="nonzero" opacity="1" stroke="none" vectornator:layerName="Rectangle 2"/>
</g>
</g>
<g opacity="1" vectornator:layerName="Group 6">
<path d="M120.366 108.856C120.366 100.027 126.506 92.8699 134.08 92.8699C141.655 92.8699 147.795 100.027 147.795 108.856C147.795 117.685 141.655 124.843 134.08 124.843C126.506 124.843 120.366 117.685 120.366 108.856Z" fill="#494949" fill-rule="nonzero" opacity="1" stroke="#007aff" stroke-linecap="butt" stroke-linejoin="round" stroke-opacity="0" stroke-width="10" vectornator:layerName="Oval 14"/>
<path d="M134.207 103.344C134.207 101.119 135.892 99.3144 137.971 99.3144C140.05 99.3144 141.736 101.119 141.736 103.344C141.736 105.57 140.05 107.374 137.971 107.374C135.892 107.374 134.207 105.57 134.207 103.344Z" fill="#ffffff" fill-rule="nonzero" opacity="1" stroke="#007aff" stroke-linecap="butt" stroke-linejoin="round" stroke-opacity="0" stroke-width="10" vectornator:layerName="Oval 15"/>
</g>
<g opacity="1" vectornator:layerName="Group 5">
<path d="M57.7569 108.495C57.7569 99.6659 63.8971 92.5085 71.4714 92.5085C79.0456 92.5085 85.1858 99.6659 85.1858 108.495C85.1858 117.324 79.0456 124.481 71.4714 124.481C63.8971 124.481 57.7569 117.324 57.7569 108.495Z" fill="#494949" fill-rule="nonzero" opacity="1" stroke="#007aff" stroke-linecap="butt" stroke-linejoin="round" stroke-opacity="0" stroke-width="10" vectornator:layerName="Oval 14"/>
<path d="M71.5974 102.983C71.5974 100.757 73.283 98.9531 75.3622 98.9531C77.4413 98.9531 79.1269 100.757 79.1269 102.983C79.1269 105.209 77.4413 107.013 75.3622 107.013C73.283 107.013 71.5974 105.209 71.5974 102.983Z" fill="#ffffff" fill-rule="nonzero" opacity="1" stroke="#007aff" stroke-linecap="butt" stroke-linejoin="round" stroke-opacity="0" stroke-width="10" vectornator:layerName="Oval 15"/>
</g>
</g>
</g>
<path d="M34.5286 59.4456C34.5286 47.8175 43.955 38.3912 55.583 38.3912C67.211 38.3912 76.6374 47.8175 76.6374 59.4456C76.6374 71.0736 67.211 80.5 55.583 80.5C43.955 80.5 34.5286 71.0736 34.5286 59.4456Z" fill="#ffffff" fill-rule="nonzero" opacity="1" stroke="#007aff" stroke-linecap="butt" stroke-linejoin="round" stroke-opacity="0" stroke-width="10" vectornator:layerName="Oval 1"/>
<path d="M60.8997 49.8651C60.8997 38.2371 70.3261 28.8107 81.9541 28.8107C93.5821 28.8107 103.009 38.2371 103.009 49.8651C103.009 61.4932 93.5821 70.9195 81.9541 70.9195C70.3261 70.9195 60.8997 61.4932 60.8997 49.8651Z" fill="#ffffff" fill-rule="nonzero" opacity="1" stroke="#007aff" stroke-linecap="butt" stroke-linejoin="round" stroke-opacity="0" stroke-width="10" vectornator:layerName="Oval 2"/>
</g>
<path d="M123.756 80.2556C126.216 90.258 142.855 91.2755 149.379 91.2755" fill="none" opacity="1" stroke="#6b665d" stroke-linecap="round" stroke-linejoin="round" stroke-width="1.62136" vectornator:layerName="Curve 6"/>
<path d="M81.5339 79.1647C79.074 90.1572 62.4351 91.2755 55.9112 91.2755" fill="none" opacity="1" stroke="#6b665d" stroke-linecap="round" stroke-linejoin="round" stroke-width="1.62136" vectornator:layerName="Curve 2"/>
<path d="M68.0252 128.363L67.6469 129.096L66.9543 130.054L66.6081 130.533L65.9798 130.983L65.6335 131.463L65.2873 131.942L64.6268 132.646L64.2806 133.125L63.9343 133.604L63.5881 134.084L63.2418 134.563L62.8635 135.296L62.5172 135.775L62.4209 136.537L62.0747 137.016L61.6963 137.75L61.318 138.483L60.9717 138.962L60.5613 139.949L60.1829 140.682L59.7725 141.67L59.3941 142.403L59.2979 143.165L58.9516 143.644L58.5732 144.377L58.1949 145.111L58.0986 145.873L57.3419 147.339L57.2456 148.101L56.8352 149.088L56.3926 150.33L56.2643 151.346L56.2001 151.854L56.1038 152.616L56.0075 153.378L55.9112 154.14L56.1291 154.677L56.0328 155.439L56.2507 155.976L56.4686 156.513L56.6865 157.05L57.2185 157.362L57.4364 157.899L57.9684 158.211L58.5004 158.523L59.0004 159.089L59.5324 159.4L60.0645 159.712L60.6286 159.77L61.1606 160.082L62.0068 160.169L62.8209 160.509L63.3851 160.567L64.5133 160.683L65.0775 160.741L66.2057 160.856L67.0519 160.943L67.9302 160.776L68.5264 160.579L69.1227 160.383L69.6868 160.441L70.3151 159.991L70.9113 159.795L71.5076 159.598L72.1359 159.148L72.7642 158.698L73.1105 158.219L73.4567 157.739L74.085 157.289L74.4634 156.556L75.0917 156.106L75.1559 155.598L75.5022 155.119L75.8805 154.385L76.2268 153.906L76.3231 153.144L76.3872 152.636L76.5156 151.62L76.5798 151.112L76.6761 150.35L76.7724 149.588L76.5545 149.051L76.6508 148.288L76.4329 147.751L76.215 147.215L76.3113 146.452L76.0934 145.915L75.8756 145.378L75.6898 144.587L75.4719 144.05L75.254 143.513L75.0361 142.977L74.5362 142.411L74.3183 141.874L73.7863 141.562L73.5684 141.025L73.3505 140.488L72.8185 140.176L72.6006 139.639L72.1007 139.073L71.8828 138.536L71.6649 137.999L71.447 137.462L71.2292 136.925L71.0113 136.388L70.7934 135.851L70.5755 135.314L70.3577 134.777L70.1398 134.24L69.954 133.449L69.7361 132.912L69.5182 132.375L69.3004 131.838L69.0825 131.301L68.8646 130.764L68.6467 130.227L68.743 129.465" fill="#8ecee7" fill-rule="nonzero" opacity="1" stroke="none" vectornator:layerName="Curve 4"/>
</g>
</svg>
