<?xml version="1.0" encoding="UTF-8"?>
<svg xmlns="http://www.w3.org/2000/svg" viewBox="0 0 300 300" width="300" height="300">
<g transform="scale(1.0)">
 
 <g id="stem"><rect x="196" y="40" width="12" height="130" rx="6" fill="#2a6e6e"/>
  <path d="M208 42 Q250 52 246 92 Q232 70 208 74Z" fill="#2a6e6e"/></g>
 <g id="body"><path d="M60 170 Q52 100 120 92 Q196 84 212 150 Q228 222 150 236 Q70 248 60 170Z" fill="#5ec2c2"/>
  <path d="M84 150 Q90 110 128 106 Q100 120 96 152Z" fill="#9ee2e2"/></g>
 <ellipse cx="115" cy="160" rx="16" ry="19" fill="#fff"/><circle cx="119" cy="163" r="9" fill="#2d2440"/><circle cx="122" cy="159" r="3" fill="#fff"/>
 <ellipse cx="170" cy="155" rx="13" ry="15" fill="#fff"/><circle cx="167" cy="158" r="7" fill="#2d2440"/><circle cx="169" cy="155" r="2.5" fill="#fff"/>
 <path d="M122 198 Q132 190 142 198 Q152 206 162 196" fill="none" stroke="#2d2440" stroke-width="5" stroke-linecap="round"/>
 <ellipse cx="98" cy="190" rx="11" ry="7" fill="#ffb3d1" opacity=".8"/><ellipse cx="185" cy="184" rx="10" ry="6" fill="#ffb3d1" opacity=".8"/>
 <g id="feet" fill="#2a6e6e"><ellipse cx="110" cy="240" rx="20" ry="10"/><ellipse cx="170" cy="238" rx="20" ry="10"/></g>
 <g id="sour-notes" fill="none" stroke="#ff6b8b" stroke-width="4" stroke-linecap="round">
  <path d="M250 120 l10 -6 l-4 12 l10 -4"/><path d="M30 100 l8 8 l-10 2 l8 8"/></g>
 <path d="M150 90 Q156 60 176 66" fill="none" stroke="#2a6e6e" stroke-width="6" stroke-linecap="round"/><circle cx="178" cy="64" r="8" fill="#ffd34d"/>
</g>
</svg>
